<?xml version="1.0" encoding="utf-8"?>
<!-- Generator: Adobe Illustrator 16.0.0, SVG Export Plug-In . SVG Version: 6.00 Build 0)  -->
<!DOCTYPE svg PUBLIC "-//W3C//DTD SVG 1.1//EN" "http://www.w3.org/Graphics/SVG/1.1/DTD/svg11.dtd">
<svg version="1.1" id="Layer_1" xmlns="http://www.w3.org/2000/svg" xmlns:xlink="http://www.w3.org/1999/xlink" x="0px" y="0px"
	 width="300px" height="280px" viewBox="0 0 300 280" enable-background="new 0 0 300 280" xml:space="preserve">
<g transform="translate(0.000000,280.000000) scale(0.100000,-0.100000)">
	<g id="XMLID_1_">
		<g>
			<path fill="#FFFFFF" d="M943.999,1344.004C952.998,1335.996,960,1325,960,1320c0-12.998-30-40-43.999-40
				c-33.999,0-48.003,52.002-18.003,69.004C921.001,1362.998,926.001,1362.998,943.999,1344.004z"/>
			<path fill="#FFFFFF" d="M1090,1294.004c11.001-12.002,10-18.008-2.998-32.002c-16.001-15-18.003-15-34.004,0
				c-12.998,13.994-13.999,20-2.998,32.002c7.002,8.994,16.001,15.996,20,15.996S1082.998,1302.998,1090,1294.004z"/>
			<path fill="#FFFFFF" d="M2117.998,1265.996c6.006-28.994-15-42.998-35-23.994c-13.994,13.994-13.994,20-2.998,32.998
				C2095.996,1294.004,2114.004,1290,2117.998,1265.996z"/>
			<path fill="#FFFFFF" d="M1974.004,1320.996c32.998-35.996-18.008-82.998-52.002-48.994C1899.004,1295,1915,1340,1945,1340
				C1952.002,1340,1965,1330.996,1974.004,1320.996z"/>
			<path fill="#FFFFFF" d="M1960,2430c5.996,0,10-3.999,10-10c0-5-4.004-10-10-10c-5,0-10,5-10,10
				C1950,2426.001,1955,2430,1960,2430z"/>
			<path d="M2985,1335c0-1.699,0-3.398,0-5.098l-25.996,0.098c0,9.6-0.303,19.199-1.006,29.004
				c-8.994,117.998-85,248.994-172.002,295.996c-35,18.999-35.996,21.001-35.996,80c0,81.001-25,207.998-54.004,271.001
				c-50,107.998-132.998,207.998-241.992,291.997c-39.707,30.4-50.801,36.602-53.408,25.103l-29.199,6.099
				c10.508,54.302,10.4,134.502-3.594,197.9l26.797,5.801c5.996-27.1,10.098-56.401,12.402-87.9l5.996-80l47.998-30
				c72.002-42.998,175-150,222.002-230c67.002-115,100-228.999,97.998-347.002c-0.996-53.999,1.006-57.998,38.008-85
				c50-36.997,105.996-103.999,138.994-166.997C2982.998,1458.999,2985,1446.001,2985,1335z"/>
			<path d="M2959.003,1330l25.996-0.098c0-112.998-1.504-116.806-35-179.902c-67.998-125.996-190-214.004-315-227.002
				c-50-5.498-57.305,2.5-68.604-82.402l-27.1,4.209c3.105,20.791,5.605,36.396,6.699,43.193c4.902,24.697,4.502,30.4-9.795,31.699
				l3.896,26.699c1.006-0.098,1.904-0.293,2.9-0.4c57.002-7.998,182.002,22.002,231.006,56.006
				C2895.195,1085,2959.003,1198.301,2959.003,1330z"/>
			<path fill="#E6DADA" d="M640,1270c1.001,0-1.001-5-5-15c-5-10.996-10-35.996-12.998-55.996c-3.003-30,0.996-41.006,23.999-63.008
				c36.997-33.994,78.999-33.994,110,0c28.999,31.006,31.001,82.002,5,115c-15,20-27.002,24.004-65,23.008
				c-22.3-0.908-41.401,1.396-45.303,5.4L640,1270z M2957.998,1359.004c0.703-9.805,1.006-19.404,1.006-29.004
				c0-131.699-63.809-245-185-327.998C2725,967.998,2600,937.998,2542.998,945.996c-0.996,0.107-1.895,0.303-2.9,0.4
				c-61.201,8.301-128.594,31.006-162.1,55.605L2350,1020.996L2300,970c-30-30.996-75.996-62.998-117.001-82.998
				C2120.996,857.998,2107.002,855,2020,855.996c-97.002,0-147.998,15-232.002,71.006c-25.996,17.002-27.998,17.002-50-4.004
				C1687.002,877.002,1580.996,840,1497.002,840c-63.003,0-160,34.004-219.004,75c-40,29.004-47.998,32.002-58.999,19.004
				c-6.001-8.008-41.001-29.004-77.998-46.006c-60-30-75-32.998-161.001-32.998c-42.998,0-68.198,0.801-90.2,5
				s-40.801,12.002-70.801,25.996C780,905,732.002,937.998,702.998,967.998l-50,50L590,987.002C531.001,957.998,517.002,955,430,955
				c-86.001,0-101.001,2.998-162.002,32.002c-120.996,57.002-196.997,160-220.996,297.002
				c-17.9,105.996,26.099,236.294,99.399,316.997c20.801,22.9,43.896,41.797,68.599,55c33.999,17.998,35,20,35,78.999
				c0,220,103.999,422.998,283.999,553.999C626.001,2356.001,771.001,2410,860,2410c42.998,0,46.001,2.002,73.999,47.998
				c20.503,32.603,46.401,64.702,76.201,95c76.201,77.402,177.7,143.203,279.8,177.002c121.001,41.001,307.998,42.002,422.998,1.001
				c57.998-20,156.006-70,192.002-97.002c15.996-11.997,17.002-17.998,7.002-31.997c-40-58.003-80-172.002-72.998-214.004
				c0.293-2.3,0.4-4.297,0.195-6.099c-0.898-9.102-8.496-11.899-25.195-11.899c-70,0-75-68.999-12.002-157.002
				c57.998-80.996,175-126.997,237.998-92.998c12.998,7.002,20.996,5,30.996-7.002c22.002-25.996,90-52.998,135-52.998
				c76.006,0,177.001,50,205,101.001C2425,2188.999,2415,2227.002,2390,2235c-19.004,6.001-19.004,7.998-5,35
				c7.998,16.001,15,36.001,15,45c0,3.301,0.195,6.001,0.596,8.101c2.607,11.499,13.701,5.298,53.408-25.103
				c108.994-83.999,191.992-183.999,241.992-291.997C2725,1942.998,2750,1816.001,2750,1735c0-58.999,0.996-61.001,35.996-80
				C2872.998,1607.998,2949.003,1477.002,2957.998,1359.004z M2279.004,1115c88.994-19.004,142.998,82.002,75,142.998
				c-51.006,45-129.003,12.998-140-57.998C2209.004,1174.004,2249.004,1122.002,2279.004,1115z M2170,1240.996
				c10.996,30,10.996,45,0.996,82.002c-25,89.004-108.994,134.004-205.996,110c-92.002-22.998-135.996-152.998-80-235.996
				C1960.996,1087.002,2125,1112.002,2170,1240.996z M1501.001,1200c71.997,0,173.003,62.002,143.999,87.998
				c-5.996,6.006-27.002-2.998-52.998-22.002c-64.004-45.996-120-41.992-209.004,14.004c-26.997,17.002-37.998,9.004-23.999-17.998
				C1375,1232.998,1450,1200,1501.001,1200z M1130,1235.996c11.001,22.002,20,52.002,20,66.006
				c0,55.996-41.001,117.998-97.002,146.997c-21.997,11.001-95.996,13.999-122.998,3.999
				C842.002,1420,801.001,1305,848.999,1225.996C917.002,1117.002,1075,1122.002,1130,1235.996z"/>
			<path d="M2539.296,844.805l27.1-4.209c-3.096-23.799-6.592-54.893-11.396-95.596c-37.5-301.699-83.203-464.404-165.4-558.203
				l-24.6,14.199c70.996,85,112.002,219.004,155,514.004C2526.796,762.695,2534.003,810.801,2539.296,844.805z"/>
			<path fill="#E26060" d="M1709.199,364.297c2.705,2.002,5.4,3.906,7.998,5.703c31.006,24.102,36.006,65,10,85
				c-23.994,18.096-40.996,17.1-60.996-1.904c-14.004-15-16.904-15-26.904,0c-18.096,23.008-52.1,20-70-8.096
				c-21.094-31.904-8.994-57.9,42.9-95.898c40-29.102,45-30,60-16.006C1680.596,340.596,1695.303,353.799,1709.199,364.297z
				 M2032.803,192.598c12.695,22.305,10.4,48.604-8.799,63.398c-24.004,18.105-41.006,17.002-61.006-1.895
				c-13.994-15-17.002-15-27.002,0c-17.998,22.998-51.992,20-70-8.105c-17.5-26.494-12.1-48.994,20.107-77.793
				c0.098-0.107,0.293-0.205,0.4-0.205c6.396-5.801,13.896-11.699,22.5-17.998c40-29.004,45-30,60-15.898
				c10,8.896,28.994,25.898,45,36.895C2022.099,177.305,2028.398,184.697,2032.803,192.598z M2536.201,919.697
				c14.297-1.299,14.697-7.002,9.795-31.699c-1.094-6.797-3.594-22.402-6.699-43.193c-5.293-34.004-12.5-82.109-19.297-129.805
				c-42.998-295-84.004-429.004-155-514.004c-54.004-63.994-222.998-120-425-141.992c-100.195-10.908-305.498-17.1-487.1-17.1
				c-117.5,0-225.103,2.598-287.9,8.096c-188.999,15.996-242.002,25-362.998,62.002C711.001,140,693.999,149.004,651.001,190.996
				C548.999,292.998,502.998,454.004,455,862.998L448.999,920h33.003c35,0,135,32.998,151.997,50c6.001,5.996,25-5,56.001-34.004
				c26.001-25,68.999-55.996,97.002-68.994c29.6-15.303,62.7-26.504,97.3-33.799c112.5-23.799,240.898-6.006,319.697,49.795
				c23.003,16.006,32.002,17.998,45,9.004c71.001-50.801,159.6-78.906,247.5-79.697c24.702-0.4,49.302,1.494,73.501,5.693
				c67.998,12.002,167.998,52.998,182.002,75c3.994,7.002,27.002,0,65-20C1980,785.996,2189.004,812.002,2310,932.002
				c40.996,40.996,47.998,43.994,64.004,32.002C2397.998,947.002,2490,920,2525,920C2529.404,920,2533.095,919.902,2536.201,919.697
				z M2388.203,678.701c30.996,23.994,35.996,65,10,85c-24.004,17.998-41.006,17.002-61.006-2.002c-13.994-15-17.002-15-27.002,0
				c-17.998,22.998-51.992,20-70-7.998c-20.996-32.002-8.994-57.998,43.008-96.006c40-28.994,45-30,60-15.996
				C2353.203,650.703,2372.197,667.695,2388.203,678.701z M2284.004,454.6c30.996,24.004,35.996,65,10,85
				c-24.003,17.998-41.005,17.002-61.005-2.002c-13.994-15-17.002-15-27.002,0c-17.998,22.998-51.992,20-70-7.998
				c-20.996-32.002-8.994-57.998,43.008-95.996c40-29.004,45-30,60-16.006C2249.004,426.602,2267.998,443.604,2284.004,454.6z
				 M2284.004,243.096c30.996,24.004,35.996,65,10,85c-24.003,18.008-41.005,17.002-61.005-1.992c-13.994-15-17.002-15-27.002,0
				c-17.998,22.998-51.992,20-70-8.008c-20.996-31.992-8.994-57.998,43.008-95.996c40-29.004,45-30,60-15.996
				C2249.004,215.098,2267.998,232.1,2284.004,243.096z M2118.203,606.699c30.996,24.004,35.996,65,10,85
				c-24.004,17.998-41.006,17.002-61.006-2.002c-13.994-15-17.002-15-27.002,0c-17.998,22.998-51.992,20-70-7.998
				c-20.996-32.002-8.994-57.998,43.008-95.996c40-29.004,45-30,60-16.006C2083.203,578.701,2102.197,595.703,2118.203,606.699z
				 M2014.004,382.5c30.996,24.102,35.996,65,10,85c-24.004,18.096-41.006,17.1-61.006-1.904c-13.994-15-17.002-15-27.002,0
				c-17.998,23.008-51.992,20-70-8.096c-20.996-31.904-8.994-57.9,43.008-95.898c40-29.102,45-30,60-16.006
				C1979.004,354.6,1997.998,371.602,2014.004,382.5z M1821.396,594.199c31.006,24.004,36.006,65,10,85
				c-23.994,17.998-40.996,17.002-60.996-2.002c-14.004-15-17.002-15-27.002,0c-17.998,22.998-52.002,20-70-7.998
				c-20.996-32.002-8.994-57.998,42.998-95.996c40-29.004,45-30,60-16.006C1786.396,566.201,1805.4,583.203,1821.396,594.199z
				 M1717.197,158.496c31.006,24.004,36.006,65,10,85c-23.994,18.105-40.996,17.002-60.996-1.895c-14.004-15-16.904-15-26.904,0
				c-18.096,22.998-52.1,20-70-8.105c-21.094-31.895-8.994-57.998,42.9-95.996c40-29.004,45-30,60-15.898
				C1682.197,130.498,1701.201,147.5,1717.197,158.496z M1510.703,594.199c30.996,24.004,35.996,65,10,85
				c-24.004,17.998-41.001,17.002-61.001-2.002c-14.004-15-17.002-15-27.002,0c-17.998,22.998-52.002,20-70-7.998
				c-21.001-32.002-8.999-57.998,42.998-95.996c40-29.004,45-30,60-16.006C1475.698,566.201,1494.702,583.203,1510.703,594.199z
				 M1406.601,370c30.996,24.102,35.996,65,10,85c-24.004,18.096-41.001,17.1-61.001-1.904c-13.999-15-17.002-15-27.002,0
				c-17.998,23.008-51.997,20-70-8.096c-21.001-31.904-8.999-57.9,43.003-95.898c40-29.102,45-30,60-16.006
				C1371.601,342.1,1390.6,359.102,1406.601,370z M1406.601,158.496c30.996,24.004,35.996,65,10,85
				c-24.004,18.105-41.001,17.002-61.001-1.895c-13.999-15-17.002-15-27.002,0c-17.998,22.998-51.997,20-70-8.105
				c-21.001-31.895-8.999-57.998,43.003-95.996c40-29.004,45-30,60-15.898C1371.601,130.498,1390.6,147.5,1406.601,158.496z
				 M1218.799,606.699c31.001,24.004,36.001,65,10,85c-23.999,17.998-41.001,17.002-61.001-2.002c-13.999-15-16.997-15-26.997,0
				c-18.003,22.998-52.002,20-70-7.998c-21.001-32.002-8.999-57.998,42.998-95.996c40-29.004,45-30,60-16.006
				C1183.799,578.701,1202.798,595.703,1218.799,606.699z M1114.702,382.5c30.996,24.102,35.996,65,10,85
				c-24.004,18.096-41.001,17.1-61.001-1.904c-13.999-15-17.002-15-27.002,0c-17.998,23.008-51.997,20-70-8.096
				c-21.001-31.904-8.999-57.9,43.003-95.898c40-29.102,45-30,60-16.006C1079.702,354.6,1098.701,371.602,1114.702,382.5z
				 M1114.702,170.996c30.996,24.004,35.996,65,10,85c-24.004,18.105-41.001,17.002-61.001-1.895c-13.999-15-17.002-15-27.002,0
				c-17.998,22.998-51.997,20-70-8.105c-21.001-31.895-8.999-57.998,43.003-95.996c40-29.004,45-30,60-15.898
				C1079.702,142.998,1098.701,160,1114.702,170.996z M947.099,644.697c31.001,24.004,36.001,65,10,85
				c-23.999,17.998-41.001,17.002-61.001-2.002c-13.999-15-16.997-15-26.997,0c-18.003,23.008-52.002,20-70-7.998
				c-21.001-32.002-9.004-57.998,42.998-95.996c40-29.004,45-30,60-16.006C912.099,616.699,931.099,633.701,947.099,644.697z
				 M842.9,420.596c31.001,24.004,36.001,65,10,85c-23.999,18.008-41.001,17.002-61.001-1.992c-13.999-15-16.997-15-26.997,0
				c-18.003,22.998-52.002,20-70-8.008c-21.001-31.992-9.004-57.998,42.998-95.996c40-29.004,45-30,60-15.996
				C807.9,392.598,826.899,409.6,842.9,420.596z M842.9,209.102c31.001,23.994,36.001,65,10,85
				c-23.999,17.998-41.001,17.002-61.001-2.002c-13.999-15-16.997-15-26.997,0c-18.003,22.998-52.002,20-70-7.998
				c-21.001-32.002-9.004-57.998,42.998-96.006c40-28.994,45-30,60-15.996C807.9,181.104,826.899,198.096,842.9,209.102z
				 M697.099,714.502c31.001,23.994,36.001,65,10,85c-23.999,17.998-41.001,17.002-61.001-2.002c-13.999-15-16.997-15-26.997,0
				c-18.003,22.998-52.002,20-70-7.998c-21.001-32.002-9.004-57.998,42.998-96.006c40-28.994,45-30,60-15.996
				C662.099,686.504,681.099,703.496,697.099,714.502z"/>
			<path d="M2540.097,946.396l-3.896-26.699c-3.105,0.205-6.797,0.303-11.201,0.303c-35,0-127.002,27.002-150.996,44.004
				c-16.006,11.992-23.008,8.994-64.004-32.002c-120.996-120-330-146.006-492.998-59.004c-37.998,20-61.006,27.002-65,20
				c-14.004-22.002-114.004-62.998-182.002-75c-24.199-4.199-48.799-6.094-73.501-5.693l0.503,27.695
				c83.994,0,190,37.002,240.996,82.998c22.002,21.006,24.004,21.006,50,4.004c84.004-56.006,135-71.006,232.002-71.006
				c87.002-0.996,100.996,2.002,162.998,31.006c41.006,20,87.002,52.002,117.001,82.998l50,50.996l27.998-18.994
				C2411.503,977.402,2478.896,954.697,2540.097,946.396z"/>
			<path d="M2390,2235c25-7.998,35-46.001,20.996-73.999C2382.998,2110,2282.002,2060,2205.996,2060
				c-45,0-112.998,27.002-135,52.998c-10,12.002-17.998,14.004-30.996,7.002c-62.998-33.999-180,12.002-237.998,92.998
				c-62.998,88.003-57.998,157.002,12.002,157.002c16.699,0,24.297,2.798,25.195,11.899l29.199-3.101l-0.4-3.799l59.004-22.998
				c68.994-26.001,117.002-71.001,135.996-127.002c12.998-37.998,14.004-38.999,26.006-17.002
				c20.996,39.004,87.998,66.001,160.996,65c35.996-0.996,72.998-2.998,84.003-5c17.1-2.9,30,22.603,37.393,61.201l29.199-6.099
				c-0.4-2.1-0.596-4.8-0.596-8.101c0-8.999-7.002-28.999-15-45C2370.996,2242.998,2370.996,2241.001,2390,2235z M2320,2127.002
				c82.998,43.999,85.996,76.997,10.996,101.997c-45,15-128.994,13.003-165.996-2.998c-17.002-7.002-44.004-28.003-59.004-46.001
				l-27.998-33.999l24.004-18.003C2159.004,2083.999,2239.004,2082.998,2320,2127.002z M2012.002,2145
				c28.994,7.002,30,8.999,25,46.001c-7.002,52.998-37.998,92.998-92.998,117.998c-64.004,31.001-141.006,38.999-150,17.002
				c-12.002-30,6.992-68.003,58.994-121.001C1909.004,2150,1954.004,2132.998,2012.002,2145z"/>
			<path fill="#E4A6A6" d="M2398.203,763.701c25.996-20,20.996-61.006-10-85c-16.006-11.006-35-27.998-45-37.002
				c-15-14.004-20-12.998-60,15.996c-52.002,38.008-64.004,64.004-43.008,96.006c18.008,27.998,52.001,30.996,70,7.998
				c10-15,13.008-15,27.002,0C2357.197,780.703,2374.199,781.699,2398.203,763.701z"/>
			<path d="M2394.599,2532.9l-26.797-5.801c-3.398,15.498-7.705,30-12.803,42.9c-25.996,65-72.001,127.998-107.998,151.001
				c-49.004,28.999-122.998,26.001-177.998-8.999c-97.002-62.002-188.008-196.001-196.006-290l-4.6-43.203l-29.199,3.101
				c0.205,1.802,0.098,3.799-0.195,6.099c-7.002,42.002,32.998,156.001,72.998,214.004c10,13.999,8.994,20-7.002,31.997
				c-35.996,27.002-134.004,77.002-192.002,97.002c-115,41.001-301.997,40-422.998-1.001c-102.1-33.799-203.599-99.6-279.8-177.002
				l-24.6,15.503c42.5,43.101,92.9,87.7,127.397,110.498c76.001,48.999,168.003,88.003,248.003,103.999
				c80,16.001,233.003,12.002,316.001-8.999c70-16.997,157.002-56.997,225-101.997l38.994-25l32.002,30
				c49.004,45,111.006,80.996,162.002,93.999c64.004,16.001,120-7.002,179.003-72.002
				C2352.695,2656.001,2379.501,2601.299,2394.599,2532.9z"/>
			<path d="M2365,200.996l24.6-14.199c-25.195-28.701-53.799-50.996-86.602-68.799c-48.994-27.002-133.994-55-187.998-62.002
				c-15.996-1.992-79.004-11.992-140-22.998C1882.002,17.998,1809.004,15,1495,15c-14.502,0-28.501,0-42.1,0.098v26.807
				c181.602,0,386.904,6.191,487.1,17.1C2142.002,80.996,2310.996,137.002,2365,200.996z"/>
			<path fill="#E26060" d="M2367.802,2527.099c13.994-63.398,14.102-143.599,3.594-197.9c-7.393-38.599-20.293-64.102-37.393-61.201
				c-11.006,2.002-48.008,4.004-84.003,5c-72.998,1.001-140-25.996-160.996-65c-12.002-21.997-13.008-20.996-26.006,17.002
				c-18.994,56.001-67.002,101.001-135.996,127.002L1867.998,2375l0.4,3.799l4.6,43.203c7.998,93.999,99.004,227.998,196.006,290
				c55,35,128.994,37.998,177.998,8.999C2282.998,2697.998,2329.003,2635,2355,2570
				C2360.097,2557.099,2364.404,2542.597,2367.802,2527.099z M2272.002,2302.002c30,3.999,37.998,55.996,12.002,75
				c-23.008,16.997-28.008,15.996-47.002-5C2205,2337.002,2225.996,2295,2272.002,2302.002z M2170,2315
				c17.002,17.998,20.996,27.998,12.998,36.001c-15,15-132.002,38.999-138.994,27.998c-7.002-12.998,5-50,23.994-71.001
				C2090.996,2281.001,2142.002,2285,2170,2315z M1982.002,2370c27.998,0,32.002,7.002,27.998,45
				c-4.004,32.998-44.004,47.002-67.998,22.998C1912.998,2408.999,1935.996,2370,1982.002,2370z"/>
			<path fill="#E5A9A9" d="M2354.003,1257.998c67.998-60.996,13.994-162.002-75-142.998c-30,7.002-70,59.004-65,85
				C2225,1270.996,2302.998,1302.998,2354.003,1257.998z"/>
			<path fill="#A3CA9C" d="M2330.996,2228.999c75-25,72.002-57.998-10.996-101.997c-80.996-44.004-160.996-43.003-217.998,0.996
				l-24.004,18.003l27.998,33.999c15,17.998,42.002,38.999,59.004,46.001C2202.002,2242.002,2285.996,2243.999,2330.996,2228.999z"
				/>
			<path fill="#E4A6A6" d="M2294.003,539.6c25.996-20,20.996-60.996-10-85c-16.006-10.996-35-27.998-45-37.002
				c-15-13.994-20-12.998-60,16.006c-52.002,37.998-64.004,63.994-43.008,95.996c18.008,27.998,52.002,30.996,70,7.998
				c10-15,13.008-15,27.002,0C2252.998,556.602,2270,557.598,2294.003,539.6z"/>
			<path fill="#E4A6A6" d="M2294.003,328.096c25.996-20,20.996-60.996-10-85c-16.006-10.996-35-27.998-45-36.992
				c-15-14.004-20-13.008-60,15.996c-52.002,37.998-64.004,64.004-43.008,95.996c18.008,28.008,52.002,31.006,70,8.008
				c10-15,13.008-15,27.002,0C2252.998,345.098,2270,346.104,2294.003,328.096z"/>
			<path d="M2284.004,2377.002c25.996-19.004,17.998-71.001-12.002-75c-46.006-7.002-67.002,35-35,70
				C2255.996,2392.998,2260.996,2393.999,2284.004,2377.002z M2255.996,2340c9.004,0,14.004,5,12.002,12.002
				c-5.996,17.998-27.998,20.996-27.998,3.999C2240,2347.002,2247.002,2340,2255.996,2340z"/>
			<path fill="#FFFFFF" d="M2267.998,2352.002C2270,2345,2265,2340,2255.996,2340c-8.994,0-15.996,7.002-15.996,16.001
				C2240,2372.998,2262.002,2370,2267.998,2352.002z"/>
			<path d="M2182.998,2351.001c7.998-8.003,4.004-18.003-12.998-36.001c-27.998-30-79.004-33.999-102.002-7.002
				c-18.994,21.001-30.996,58.003-23.994,71.001C2050.996,2390,2167.998,2366.001,2182.998,2351.001z M2105,2307.998
				c27.002-5.996,40.996,5,30,22.002c-2.998,6.001-17.002,10-30.996,10C2072.002,2340,2072.998,2313.999,2105,2307.998z"/>
			<path d="M2170.996,1322.998c10-37.002,10-52.002-0.996-82.002c-45-128.994-209.004-153.994-285-43.994
				c-55.996,82.998-12.002,212.998,80,235.996C2062.002,1457.002,2145.996,1412.002,2170.996,1322.998z M2082.998,1242.002
				c20-19.004,41.006-5,35,23.994c-3.994,24.004-22.002,28.008-37.998,9.004C2069.004,1262.002,2069.004,1255.996,2082.998,1242.002
				z M1922.002,1272.002c33.994-34.004,85,12.998,52.002,48.994c-9.004,10-22.002,19.004-29.004,19.004
				C1915,1340,1899.004,1295,1922.002,1272.002z"/>
			<path fill="#E4A6A6" d="M2135,2330c10.996-17.002-2.998-27.998-30-22.002c-32.002,6.001-32.998,32.002-0.996,32.002
				C2117.998,2340,2132.002,2336.001,2135,2330z"/>
			<path fill="#E4A6A6" d="M2128.203,691.699c25.996-20,20.996-60.996-10-85c-16.006-10.996-35-27.998-45-37.002
				c-15-13.994-20-12.998-60,16.006c-52.002,37.998-64.004,63.994-43.008,95.996c18.008,27.998,52.002,30.996,70,7.998
				c10-15,13.008-15,27.002,0C2087.197,708.701,2104.199,709.697,2128.203,691.699z"/>
			<path fill="#A3CA9C" d="M2037.002,2191.001c5-37.002,3.994-38.999-25-46.001c-57.998-12.002-102.998,5-159.004,60
				c-52.002,52.998-70.996,91.001-58.994,121.001c8.994,21.997,85.996,13.999,150-17.002
				C1999.004,2283.999,2030,2243.999,2037.002,2191.001z"/>
			<path fill="#E4A6A6" d="M2024.004,255.996c19.199-14.795,21.494-41.094,8.799-63.398c-1.504-1.602-3.105-3.096-4.805-4.6
				c-45.996-40-77.002-50.996-108.994-37.998c-12.207,5.098-23.008,11.201-32.5,17.998c-0.107,0-0.303,0.098-0.4,0.205
				c-32.207,28.799-37.607,51.299-20.107,77.793c18.008,28.105,52.002,31.104,70,8.105c10-15,13.008-15,27.002,0
				C1982.998,272.998,2000,274.102,2024.004,255.996z"/>
			<path fill="#E4A6A6" d="M2027.998,187.998c1.699,1.504,3.301,2.998,4.805,4.6c-4.404-7.9-10.703-15.293-18.799-21.602
				c-16.006-10.996-35-27.998-45-36.895c-15-14.102-20-13.105-60,15.898c-8.604,6.299-16.104,12.197-22.5,17.998
				c9.492-6.797,20.293-12.9,32.5-17.998C1950.996,137.002,1982.002,147.998,2027.998,187.998z"/>
			<path fill="#E4A6A6" d="M2024.004,467.5c25.996-20,20.996-60.898-10-85c-16.006-10.898-35-27.9-45-36.904
				c-15-13.994-20-13.096-60,16.006c-52.002,37.998-64.004,63.994-43.008,95.898c18.008,28.096,52.002,31.104,70,8.096
				c10-15,13.008-15,27.002,0C1982.998,484.6,2000,485.596,2024.004,467.5z"/>
			<path d="M2010,2415c4.004-37.998,0-45-27.998-45c-46.006,0-69.004,38.999-40,67.998
				C1965.996,2462.002,2005.996,2447.998,2010,2415z M1970,2420c0,6.001-4.004,10-10,10c-5,0-10-3.999-10-10c0-5,5-10,10-10
				C1965.996,2410,1970,2415,1970,2420z"/>
			<path fill="#E4A6A6" d="M1831.396,679.199c26.006-20,21.006-60.996-10-85c-15.996-10.996-35-27.998-45-37.002
				c-15-13.994-20-12.998-60,16.006c-51.992,37.998-63.994,63.994-42.998,95.996c17.998,27.998,52.002,30.996,70,7.998
				c10-15,12.998-15,27.002,0C1790.4,696.201,1807.402,697.197,1831.396,679.199z"/>
			<path fill="#E4A6A6" d="M1709.199,364.297c-13.896-10.498-28.604-23.701-37.002-31.201c-15-13.994-20-13.096-60,16.006
				c-51.895,37.998-63.994,63.994-42.9,95.898c17.9,28.096,51.904,31.104,70,8.096c10-15,12.9-15,26.904,0
				c20,19.004,37.002,20,60.996,1.904c26.006-20,21.006-60.898-10-85C1714.599,368.203,1711.904,366.299,1709.199,364.297z"/>
			<path fill="#E4A6A6" d="M1727.197,243.496c26.006-20,21.006-60.996-10-85c-15.996-10.996-35-27.998-45-36.895
				c-15-14.102-20-13.105-60,15.898c-51.895,37.998-63.994,64.102-42.9,95.996c17.9,28.105,51.904,31.104,70,8.105
				c10-15,12.9-15,26.904,0C1686.201,260.498,1703.203,261.602,1727.197,243.496z"/>
			<path d="M1645,1287.998c29.004-25.996-72.002-87.998-143.999-87.998c-51.001,0-126.001,32.998-142.002,62.002
				c-13.999,27.002-2.998,35,23.999,17.998c89.004-55.996,145-60,209.004-14.004C1617.998,1285,1639.004,1294.004,1645,1287.998z"/>
			<path fill="#E4A6A6" d="M1520.703,679.199c25.996-20,20.996-60.996-10-85c-16.001-10.996-35.005-27.998-45.005-37.002
				c-15-13.994-20-12.998-60,16.006c-51.997,37.998-63.999,63.994-42.998,95.996c17.998,27.998,52.002,30.996,70,7.998
				c10-15,12.998-15,27.002,0C1479.702,696.201,1496.699,697.197,1520.703,679.199z"/>
			<path d="M1497.002,840l-0.503-27.695c-87.9,0.791-176.499,28.896-247.5,79.697c-12.998,8.994-21.997,7.002-45-9.004
				c-78.799-55.801-207.197-73.594-319.697-49.795L889.8,860c22.002-4.199,47.202-5,90.2-5c86.001,0,101.001,2.998,161.001,32.998
				c36.997,17.002,71.997,37.998,77.998,46.006c11.001,12.998,18.999,10,58.999-19.004C1337.002,874.004,1433.999,840,1497.002,840z
				"/>
			<path d="M1452.9,41.904V15.098C1109.599,15.4,1051.001,20.801,847.998,65c-255,54.004-341.997,194.004-403.999,650
				C430,820,416.001,907.998,412.002,910.996c-4.004,3.008-36.001,11.006-71.001,18.008
				C257.002,945,208.999,970.996,142.998,1032.002c-168.398,160.498-176.797,411.196-19.399,585l22.803-16.001
				c-73.301-80.703-117.3-211.001-99.399-316.997c23.999-137.002,100-240,220.996-297.002C328.999,957.998,343.999,955,430,955
				c87.002,0,101.001,2.998,160,32.002l62.998,30.996l50-50c29.004-30,77.002-62.998,116.001-82.002
				c30-13.994,48.799-21.797,70.801-25.996l-5.498-26.797c-34.6,7.295-67.7,18.496-97.3,33.799
				C758.999,880,716.001,910.996,690,935.996c-31.001,29.004-50,40-56.001,34.004c-16.997-17.002-116.997-50-151.997-50h-33.003
				L455,862.998c47.998-408.994,93.999-570,196.001-672.002c42.998-41.992,60-50.996,151.001-78.994
				C922.998,75,976.001,65.996,1165,50C1227.798,44.502,1335.4,41.904,1452.9,41.904z"/>
			<path fill="#E4A6A6" d="M1416.601,455c25.996-20,20.996-60.898-10-85c-16.001-10.898-35-27.9-45-36.904
				c-15-13.994-20-13.096-60,16.006c-52.002,37.998-64.004,63.994-43.003,95.898c18.003,28.096,52.002,31.104,70,8.096
				c10-15,13.003-15,27.002,0C1375.6,472.1,1392.598,473.096,1416.601,455z"/>
			<path fill="#E4A6A6" d="M1416.601,243.496c25.996-20,20.996-60.996-10-85c-16.001-10.996-35-27.998-45-36.895
				c-15-14.102-20-13.105-60,15.898c-52.002,37.998-64.004,64.102-43.003,95.996c18.003,28.105,52.002,31.104,70,8.105
				c10-15,13.003-15,27.002,0C1375.6,260.498,1392.598,261.602,1416.601,243.496z"/>
			<path fill="#E4A6A6" d="M1228.799,691.699c26.001-20,21.001-60.996-10-85c-16.001-10.996-35-27.998-45-37.002
				c-15-13.994-20-12.998-60,16.006c-51.997,37.998-63.999,63.994-42.998,95.996c17.998,27.998,51.997,30.996,70,7.998
				c10-15,12.998-15,26.997,0C1187.798,708.701,1204.8,709.697,1228.799,691.699z"/>
			<path d="M1150,1302.002c0-14.004-8.999-44.004-20-66.006c-55-113.994-212.998-118.994-281.001-10
				C801.001,1305,842.002,1420,930,1452.998c27.002,10,101.001,7.002,122.998-3.999C1108.999,1420,1150,1357.998,1150,1302.002z
				 M1087.002,1262.002c12.998,13.994,13.999,20,2.998,32.002c-7.002,8.994-16.001,15.996-20,15.996s-12.998-7.002-20-15.996
				c-11.001-12.002-10-18.008,2.998-32.002C1068.999,1247.002,1071.001,1247.002,1087.002,1262.002z M960,1320
				c0,5-7.002,15.996-16.001,24.004c-17.998,18.994-22.998,18.994-46.001,5c-30-17.002-15.996-69.004,18.003-69.004
				C930,1280,960,1307.002,960,1320z"/>
			<path fill="#E4A6A6" d="M1124.702,467.5c25.996-20,20.996-60.898-10-85c-16.001-10.898-35-27.9-45-36.904
				c-15-13.994-20-13.096-60,16.006C957.7,399.6,945.698,425.596,966.699,457.5c18.003,28.096,52.002,31.104,70,8.096
				c10-15,13.003-15,27.002,0C1083.701,484.6,1100.698,485.596,1124.702,467.5z"/>
			<path fill="#E4A6A6" d="M1124.702,255.996c25.996-20,20.996-60.996-10-85c-16.001-10.996-35-27.998-45-36.895
				c-15-14.102-20-13.105-60,15.898c-52.002,37.998-64.004,64.102-43.003,95.996c18.003,28.105,52.002,31.104,70,8.105
				c10-15,13.003-15,27.002,0C1083.701,272.998,1100.698,274.102,1124.702,255.996z"/>
			<path d="M985.6,2568.501l24.6-15.503c-29.8-30.298-55.698-62.397-76.201-95C906.001,2412.002,902.998,2410,860,2410
				c-88.999,0-233.999-53.999-326.001-121.001C353.999,2157.998,250,1955,250,1735c0-58.999-1.001-61.001-35-78.999
				c-24.702-13.203-47.798-32.1-68.599-55l-22.803,16.001c2.402,2.7,4.902,5.4,7.402,7.998c27.998,30,58.999,57.002,68.999,60
				c13.999,3.999,17.998,22.002,22.998,102.998c16.001,268.003,186.001,509.004,428.003,605C723.999,2422.002,830,2450,871.001,2450
				c16.997,0,28.999,7.998,36.997,23.999C916.899,2493.701,948.198,2530.498,985.6,2568.501z"/>
			<path fill="#E4A6A6" d="M957.099,729.697c26.001-20,21.001-60.996-10-85c-16.001-10.996-35-27.998-45-37.002
				c-15-13.994-20-12.998-60,16.006c-52.002,37.998-63.999,63.994-42.998,95.996c17.998,27.998,51.997,31.006,70,7.998
				c10-15,12.998-15,26.997,0C916.099,746.699,933.1,747.695,957.099,729.697z"/>
			<path fill="#E4A6A6" d="M852.9,505.596c26.001-20,21.001-60.996-10-85c-16.001-10.996-35-27.998-45-36.992
				c-15-14.004-20-13.008-60,15.996c-52.002,37.998-63.999,64.004-42.998,95.996c17.998,28.008,51.997,31.006,70,8.008
				c10-15,12.998-15,26.997,0C811.899,522.598,828.901,523.604,852.9,505.596z"/>
			<path fill="#E4A6A6" d="M852.9,294.102c26.001-20,21.001-61.006-10-85c-16.001-11.006-35-27.998-45-37.002
				c-15-14.004-20-12.998-60,15.996c-52.002,38.008-63.999,64.004-42.998,96.006c17.998,27.998,51.997,30.996,70,7.998
				c10-15,12.998-15,26.997,0C811.899,311.104,828.901,312.1,852.9,294.102z"/>
			<path fill="#E5A9A9" d="M761.001,1250.996c26.001-32.998,23.999-83.994-5-115c-31.001-33.994-73.003-33.994-110,0
				c-23.003,22.002-27.002,33.008-23.999,63.008c2.998,20,7.998,45,12.998,55.996c3.999,10,6.001,15,5,15l10.698,9.404
				c3.901-4.004,23.003-6.308,45.303-5.4C733.999,1275,746.001,1270.996,761.001,1250.996z"/>
			<path fill="#E4A6A6" d="M707.099,799.502c26.001-20,21.001-61.006-10-85c-16.001-11.006-35-27.998-45-37.002
				c-15-14.004-20-12.998-60,15.996c-52.002,38.008-63.999,64.004-42.998,96.006c17.998,27.998,51.997,30.996,70,7.998
				c10-15,12.998-15,26.997,0C666.099,816.504,683.1,817.5,707.099,799.502z"/>
		</g>
		<g>
		</g>
	</g>
</g>
</svg>
